<svg width="25" height="25" viewBox="0 0 25 25" fill="none" xmlns="http://www.w3.org/2000/svg">
<path fill-rule="evenodd" clip-rule="evenodd" d="M3.7495 3.74951C5.48018 2.01885 7.6852 0.840256 10.0857 0.362777C12.4862 -0.114703 14.9744 0.130372 17.2356 1.06701C19.4969 2.00365 21.4296 3.58978 22.7893 5.62484C24.1491 7.65989 24.8749 10.0525 24.8749 12.5C24.8749 14.9475 24.1491 17.3401 22.7893 19.3752C21.4296 21.4102 19.4969 22.9964 17.2356 23.933C14.9744 24.8696 12.4862 25.1147 10.0857 24.6372C7.6852 24.1598 5.48018 22.9812 3.7495 21.2505C3.49903 20.9912 3.36044 20.6438 3.36357 20.2833C3.36671 19.9228 3.51131 19.5779 3.76625 19.323C4.02119 19.0681 4.36605 18.9235 4.72657 18.9203C5.08709 18.9172 5.43442 19.0558 5.69375 19.3063C7.03987 20.6522 8.75488 21.5688 10.6219 21.9401C12.489 22.3114 14.4242 22.1208 16.1829 21.3923C17.9415 20.6637 19.4447 19.4301 20.5023 17.8473C21.5598 16.2645 22.1243 14.4036 22.1243 12.5C22.1243 10.5964 21.5598 8.73555 20.5023 7.15274C19.4447 5.56994 17.9415 4.33628 16.1829 3.60776C14.4242 2.87924 12.489 2.68857 10.6219 3.05988C8.75488 3.43118 7.03987 4.34777 5.69375 5.69376C5.56691 5.82508 5.41519 5.92983 5.24743 6.00189C5.07968 6.07396 4.89925 6.11189 4.71668 6.11347C4.53411 6.11506 4.35305 6.08027 4.18406 6.01114C4.01508 5.942 3.86156 5.8399 3.73246 5.7108C3.60336 5.5817 3.50126 5.42817 3.43212 5.25919C3.36298 5.09021 3.32819 4.90915 3.32978 4.72658C3.33137 4.54401 3.3693 4.36358 3.44136 4.19582C3.51342 4.02807 3.61817 3.87635 3.7495 3.74951ZM11.5279 7.40288C11.7857 7.14511 12.1354 7.0003 12.5 7.0003C12.8646 7.0003 13.2143 7.14511 13.4721 7.40288L16.042 9.97275L16.0723 10.003C16.3184 10.2491 16.5576 10.487 16.7433 10.707C16.9468 10.9463 17.1668 11.2515 17.296 11.6503C17.4754 12.2025 17.4754 12.7975 17.296 13.3498C17.1668 13.7485 16.9468 14.0538 16.7433 14.2944C16.5287 14.5366 16.3048 14.7706 16.0723 14.9956L13.4735 17.5971C13.2157 17.8551 12.8659 18.0002 12.5012 18.0003C12.1364 18.0004 11.7866 17.8556 11.5286 17.5978C11.2706 17.34 11.1255 16.9902 11.1254 16.6255C11.1253 16.2607 11.2701 15.9109 11.5279 15.6529L13.3058 13.875H1.5C1.13533 13.875 0.785591 13.7301 0.527728 13.4723C0.269866 13.2144 0.125 12.8647 0.125 12.5C0.125 12.1353 0.269866 11.7856 0.527728 11.5277C0.785591 11.2699 1.13533 11.125 1.5 11.125H13.3058L11.5279 9.34713C11.2701 9.08928 11.1253 8.73961 11.1253 8.37501C11.1253 8.0104 11.2701 7.66073 11.5279 7.40288Z" fill="#F1BD19"/>
</svg>
