<svg width="26" height="26" viewBox="0 0 26 26" fill="none" xmlns="http://www.w3.org/2000/svg">
<path fill-rule="evenodd" clip-rule="evenodd" d="M20.5123 0.679748C20.4741 0.525803 20.3957 0.384767 20.2851 0.271069C20.1745 0.15737 20.0357 0.0750911 19.8828 0.032649C19.73 -0.00979307 19.5687 -0.0108746 19.4153 0.029515C19.2619 0.0699046 19.122 0.150316 19.0099 0.262521L15.4285 3.84387C15.3193 3.95332 15.2403 4.08919 15.1992 4.23825C15.1581 4.38731 15.1563 4.54448 15.194 4.69444L15.8386 7.28017C15.8301 7.28841 15.8218 7.29677 15.8135 7.30524L11.532 11.5867C11.2948 11.8413 11.1657 12.1781 11.1718 12.526C11.1779 12.8739 11.3189 13.2059 11.5649 13.4519C11.811 13.698 12.143 13.839 12.4909 13.8451C12.8388 13.8512 13.1756 13.7221 13.4301 13.4849L17.7152 9.20515C17.7237 9.1963 17.7321 9.18735 17.7403 9.17829L20.3242 9.82472C20.4742 9.86239 20.6314 9.86059 20.7804 9.81948C20.9295 9.77837 21.0654 9.69936 21.1748 9.59014L24.7562 6.00879C24.8688 5.89673 24.9496 5.7567 24.9903 5.60308C25.031 5.44947 25.03 5.28779 24.9875 5.13466C24.9451 4.98153 24.8626 4.84247 24.7486 4.73175C24.6346 4.62103 24.4932 4.54264 24.3389 4.50463L21.2787 3.7418L20.5123 0.679748ZM13.0487 1.3602C13.0733 1.71542 12.9559 2.06587 12.7222 2.3345C12.4884 2.60313 12.1576 2.76796 11.8024 2.79274C9.93152 2.9224 8.13717 3.58643 6.63257 4.70592C5.12797 5.82542 3.97639 7.35332 3.31465 9.10808C2.65291 10.8628 2.50883 12.7707 2.89954 14.6049C3.29025 16.4392 4.19932 18.1227 5.51873 19.4554C6.83813 20.7882 8.51241 21.7142 10.3426 22.1233C12.1728 22.5325 14.082 22.4076 15.8434 21.7636C17.6047 21.1195 19.1441 19.9834 20.2787 18.4901C21.4133 16.9969 22.0954 15.2093 22.2438 13.3398C22.2721 12.9846 22.4403 12.6551 22.7115 12.4239C22.9827 12.1927 23.3346 12.0787 23.6898 12.1069C24.045 12.1352 24.3745 12.3034 24.6057 12.5746C24.8369 12.8458 24.9509 13.1977 24.9227 13.5529C24.7332 15.9349 23.8639 18.2124 22.4181 20.1149C20.9723 22.0174 19.0107 23.4648 16.7665 24.2853C14.5223 25.1058 12.0897 25.2648 9.75774 24.7434C7.4258 24.222 5.29254 23.0422 3.6114 21.3441C1.93027 19.646 0.771923 17.501 0.273992 15.1639C-0.223939 12.8269 -0.0405275 10.396 0.802436 8.1601C1.6454 5.92422 3.11248 3.97731 5.02938 2.55068C6.94628 1.12405 9.23242 0.277674 11.6162 0.112105C11.9714 0.0875032 12.3219 0.20497 12.5905 0.43868C12.8591 0.672389 13.0239 1.005 13.0487 1.3602ZM11.8454 7.26764C11.9097 7.43189 11.9411 7.60721 11.9377 7.78358C11.9343 7.95996 11.8961 8.13393 11.8254 8.29556C11.7548 8.45719 11.653 8.60332 11.5258 8.72559C11.3986 8.84786 11.2486 8.94388 11.0844 9.00817C10.4971 9.23853 9.97649 9.6116 9.56961 10.0937C9.16273 10.5757 8.88239 11.1516 8.75393 11.7692C8.62548 12.3868 8.65296 13.0267 8.83388 13.631C9.01481 14.2354 9.34348 14.7851 9.7902 15.2305C10.2369 15.6759 10.7876 16.003 11.3924 16.1821C11.9973 16.3613 12.6372 16.3869 13.2545 16.2567C13.8717 16.1264 14.4467 15.8444 14.9276 15.4361C15.4085 15.0278 15.7801 14.5061 16.0087 13.9182C16.0727 13.7538 16.1684 13.6037 16.2904 13.4763C16.4124 13.3489 16.5583 13.2468 16.7197 13.1758C16.8812 13.1048 17.055 13.0663 17.2314 13.0625C17.4077 13.0587 17.5831 13.0896 17.7475 13.1536C17.9118 13.2175 18.062 13.3133 18.1894 13.4353C18.3168 13.5572 18.4189 13.7031 18.4899 13.8646C18.5609 14.0261 18.5994 14.1999 18.6032 14.3763C18.607 14.5526 18.576 14.728 18.5121 14.8923C18.1215 15.8963 17.4869 16.7872 16.6656 17.4843C15.8443 18.1814 14.8622 18.6629 13.8081 18.8851C12.754 19.1074 11.6611 19.0634 10.6283 18.7572C9.59544 18.451 8.65519 17.8922 7.89254 17.1314C7.1299 16.3705 6.5689 15.4316 6.26027 14.3994C5.95164 13.3673 5.90511 12.2745 6.12489 11.2199C6.34466 10.1653 6.82381 9.18206 7.51902 8.35913C8.21423 7.53619 9.10357 6.8995 10.1067 6.5066C10.4382 6.3772 10.8075 6.38467 11.1335 6.52736C11.4595 6.67005 11.7155 6.9363 11.8454 7.26764Z" fill="#F1BD19"/>
</svg>
