<svg width="33" height="25" viewBox="0 0 33 25" fill="none" xmlns="http://www.w3.org/2000/svg">
<path d="M18.9638 1.47556C19.1406 1.58145 19.3179 1.6866 19.4951 1.79176C19.5434 1.82041 19.5434 1.82041 19.5926 1.84964C20.6571 2.48115 21.7328 3.09049 22.8336 3.65996C23.2357 3.86798 23.6341 4.08148 24.0289 4.30246C24.1379 4.36335 24.247 4.42385 24.3562 4.48436C24.7811 4.72063 25.2012 4.9606 25.6057 5.22899C25.6302 5.24525 25.6548 5.26151 25.6801 5.27826C26.3433 5.72025 26.3433 5.72025 26.6013 5.9654C26.6187 5.98172 26.6362 5.99804 26.6542 6.01486C26.8515 6.2293 26.836 6.45405 26.8329 6.72913C26.8331 6.77975 26.8334 6.83037 26.8338 6.88099C26.8345 7.01969 26.8339 7.15836 26.8332 7.29705C26.8325 7.44678 26.8331 7.59651 26.8336 7.74624C26.8342 8.03937 26.8338 8.3325 26.8329 8.62563C26.832 8.96697 26.8321 9.30831 26.8322 9.64965C26.8325 10.2586 26.8317 10.8676 26.8303 11.4766C26.829 12.0676 26.8285 12.6586 26.8289 13.2496C26.8293 13.8931 26.8293 14.5367 26.8285 15.1803C26.8285 15.2489 26.8284 15.3175 26.8283 15.3861C26.8282 15.4367 26.8282 15.4367 26.8282 15.4884C26.8279 15.7264 26.8279 15.9644 26.8281 16.2023C26.8282 16.4923 26.8278 16.7822 26.8268 17.0721C26.8263 17.2201 26.8261 17.368 26.8264 17.516C26.8267 17.6514 26.8263 17.7867 26.8254 17.9222C26.8252 17.9712 26.8253 18.0202 26.8256 18.0692C26.8259 18.1358 26.8253 18.2024 26.8247 18.2689C26.8246 18.3059 26.8246 18.3429 26.8245 18.381C26.7604 18.7636 26.2935 19.0392 25.9941 19.252C25.2615 19.7637 24.4681 20.1967 23.6833 20.6265C23.6483 20.6456 23.6134 20.6648 23.5774 20.6845C23.1639 20.9107 22.7488 21.1334 22.33 21.3503C21.9739 21.5348 21.6227 21.7256 21.2753 21.9254C21.0355 22.0632 20.7939 22.1974 20.5507 22.3294C20.2458 22.4951 19.9418 22.6624 19.6388 22.8315C19.6189 22.8426 19.5989 22.8538 19.5784 22.8653C19.4361 22.9446 19.294 23.024 19.1518 23.1035C18.9895 23.1942 18.8271 23.2848 18.6648 23.3754C18.6449 23.3865 18.6251 23.3976 18.6047 23.409C18.2797 23.5903 17.9537 23.7698 17.6257 23.9459C17.4735 24.0281 17.3241 24.1108 17.1801 24.2061C16.8355 24.4339 16.8355 24.4339 16.6093 24.411C16.529 24.391 16.4497 24.3675 16.3711 24.342C16.3457 24.3343 16.3203 24.3266 16.2942 24.3187C15.4764 24.0695 14.7048 23.6633 13.96 23.2558C13.8596 23.2009 13.7588 23.1466 13.6579 23.0924C13.0649 22.7725 12.4848 22.4332 11.9063 22.0891C11.25 21.6988 10.5878 21.3245 9.91002 20.9705C9.53133 20.7723 9.15657 20.5681 8.78435 20.3587C8.74766 20.3381 8.71098 20.3175 8.67318 20.2962C6.47485 19.0557 6.47485 19.0557 6.17532 18.4842C6.1623 18.3854 6.1623 18.3854 6.16208 18.2736C6.16158 18.2095 6.16158 18.2095 6.16107 18.1441C6.16122 18.0968 6.16138 18.0494 6.16155 18.0021C6.16136 17.9517 6.16112 17.9014 6.16085 17.851C6.16022 17.7126 6.16023 17.5742 6.16035 17.4358C6.16037 17.2866 6.1598 17.1373 6.15931 16.9881C6.15846 16.6956 6.15818 16.4032 6.15812 16.1108C6.15807 15.8731 6.15786 15.6354 6.15753 15.3977C6.15662 14.724 6.15615 14.0502 6.15623 13.3765C6.15623 13.3402 6.15623 13.3038 6.15624 13.2664C6.15624 13.23 6.15625 13.1937 6.15625 13.1562C6.15629 12.5666 6.15531 11.9771 6.15386 11.3876C6.15238 10.7824 6.15167 10.1772 6.15175 9.57197C6.15179 9.23214 6.15151 8.89232 6.1504 8.55249C6.14946 8.26316 6.14923 7.97384 6.14993 7.68451C6.15027 7.53689 6.15028 7.38928 6.14938 7.24166C6.14857 7.10647 6.14872 6.97131 6.14962 6.83612C6.14978 6.78727 6.14959 6.73841 6.14902 6.68955C6.14624 6.43603 6.14631 6.2461 6.32598 6.05176C6.34423 6.0343 6.36249 6.01685 6.3813 5.99887C6.40113 5.978 6.42095 5.95713 6.44138 5.93562C6.58596 5.78441 6.75093 5.66191 6.92199 5.54071C6.95023 5.52057 6.97847 5.50044 7.00757 5.47969C7.30474 5.27031 7.61313 5.08016 7.92612 4.89427C7.9473 4.88158 7.96848 4.8689 7.9903 4.85582C8.66865 4.44982 9.36395 4.07173 10.0649 3.70448C10.4516 3.50108 10.8331 3.28912 11.2139 3.07552C11.4404 2.94906 11.6696 2.82806 11.8997 2.70807C12.335 2.48034 12.757 2.23297 13.1785 1.98213C13.2438 1.94346 13.309 1.9048 13.3743 1.86615C13.632 1.71343 13.8897 1.56065 14.1465 1.40649C16.0633 0.256422 17.0514 0.329862 18.9638 1.47556ZM15.618 2.85452C15.5622 2.883 15.5622 2.883 15.5053 2.91206C15.148 3.09572 14.7975 3.28989 14.4487 3.48841C14.3824 3.52603 14.316 3.56364 14.2497 3.60125C14.0412 3.71957 13.833 3.83828 13.6248 3.95703C12.0593 4.84935 12.0593 4.84935 11.5693 5.10766C11.2909 5.25484 11.0199 5.41316 10.7497 5.57418C9.71793 6.18883 9.71793 6.18883 9.19778 6.4586C9.13781 6.48972 9.13781 6.48972 9.07664 6.52146C9.00013 6.5609 8.92347 6.60006 8.84662 6.63886C8.46254 6.83587 8.08275 7.06367 7.94675 7.48487C7.90874 7.64556 7.912 7.80553 7.91304 7.96973C7.91288 8.00886 7.91272 8.048 7.91255 8.08833C7.91221 8.19622 7.91233 8.3041 7.91265 8.41199C7.91289 8.52863 7.91253 8.64527 7.91224 8.76192C7.91179 8.99013 7.91189 9.21834 7.91218 9.44655C7.91242 9.63208 7.91245 9.81761 7.91234 10.0031C7.91232 10.0296 7.9123 10.056 7.91229 10.0833C7.91226 10.137 7.91222 10.1907 7.91219 10.2444C7.91189 10.7477 7.91223 11.2511 7.91279 11.7544C7.91325 12.1859 7.91317 12.6175 7.91269 13.049C7.91214 13.5506 7.91192 14.0521 7.91224 14.5537C7.91227 14.6072 7.9123 14.6607 7.91234 14.7143C7.91235 14.7406 7.91237 14.7669 7.91238 14.7941C7.91247 14.9793 7.91232 15.1645 7.91208 15.3497C7.91179 15.5756 7.91187 15.8014 7.91242 16.0273C7.91269 16.1424 7.9128 16.2576 7.91246 16.3727C7.91217 16.4977 7.91253 16.6227 7.91304 16.7477C7.91281 16.7838 7.91258 16.82 7.91234 16.8573C7.91496 17.1862 7.98492 17.4657 8.22651 17.7076C8.43598 17.8985 8.65907 18.0203 8.91523 18.1432C8.97768 18.1739 9.04004 18.2048 9.10239 18.2357C9.16421 18.2663 9.2261 18.2967 9.28799 18.3272C9.78173 18.5718 10.2552 18.8478 10.7275 19.1293C11.3531 19.502 11.9799 19.873 12.6261 20.2107C13.0353 20.4257 13.4327 20.6606 13.8308 20.8943C13.8663 20.9151 13.9018 20.9359 13.9383 20.9574C14.2539 21.143 14.5685 21.3299 14.8793 21.5231C15.7463 22.096 15.7463 22.096 16.7556 22.1788C17.4191 22.0136 17.9957 21.6418 18.5748 21.2991C18.6368 21.2625 18.6989 21.226 18.7609 21.1894C19.1615 20.9538 19.561 20.7165 19.9585 20.4759C20.0462 20.4229 20.1339 20.3699 20.2217 20.317C20.2913 20.275 20.3609 20.2329 20.4305 20.1908C20.8705 19.9248 21.311 19.6676 21.773 19.4389C22.1319 19.2597 22.4755 19.0562 22.8211 18.854C23.0283 18.7331 23.2377 18.616 23.4473 18.4989C23.7537 18.327 24.0593 18.1538 24.3634 17.9779C24.3995 17.9573 24.4355 17.9367 24.4727 17.9155C24.7162 17.7738 24.9527 17.6315 25.0417 17.3516C25.0584 17.2696 25.0609 17.1941 25.061 17.1104C25.0613 17.059 25.0613 17.059 25.0615 17.0066C25.0615 16.9691 25.0615 16.9315 25.0615 16.8928C25.0617 16.8329 25.0617 16.8329 25.0619 16.7717C25.0622 16.6608 25.0623 16.5499 25.0624 16.4389C25.0626 16.3193 25.0629 16.1997 25.0632 16.08C25.0639 15.7911 25.0642 15.5022 25.0645 15.2132C25.0647 15.0771 25.0649 14.941 25.065 14.8049C25.0656 14.3525 25.0661 13.9 25.0664 13.4476C25.0664 13.3302 25.0665 13.2128 25.0666 13.0954C25.0666 13.0662 25.0666 13.0371 25.0666 13.007C25.0669 12.5344 25.0678 12.0618 25.0689 11.5891C25.07 11.1038 25.0706 10.6185 25.0708 10.1331C25.0708 9.86066 25.0711 9.58821 25.072 9.31575C25.0728 9.08371 25.073 8.85168 25.0727 8.61965C25.0725 8.50131 25.0726 8.38298 25.0733 8.26464C25.074 8.1362 25.0736 8.00777 25.0732 7.87933C25.0738 7.82354 25.0737 7.82354 25.0743 7.76663C25.0721 7.50983 25.0264 7.29982 24.858 7.09673C24.6802 6.95549 24.4941 6.84383 24.2926 6.73736C24.2224 6.69948 24.1522 6.66156 24.0821 6.62361C24.0452 6.60377 24.0083 6.58393 23.9703 6.56349C23.7898 6.4657 23.6107 6.36561 23.4315 6.26547C23.3493 6.21952 23.2671 6.17365 23.1848 6.12778C23.1249 6.0944 23.0651 6.06101 23.0052 6.02762C22.8765 5.95579 22.7477 5.88401 22.6189 5.81227C22.5617 5.78039 22.5045 5.7485 22.4473 5.71659C22.2812 5.62396 22.1149 5.53175 21.9484 5.4399C21.495 5.18924 21.0462 4.93251 20.6015 4.66741C20.2463 4.45579 19.8873 4.25081 19.5271 4.04746C19.4253 3.98984 19.3237 3.93185 19.2222 3.87374C18.5699 3.50046 17.9135 3.1358 17.2422 2.79594C17.1839 2.76639 17.1839 2.76639 17.1245 2.73625C16.5022 2.4236 16.2283 2.54134 15.618 2.85452Z" fill="#F0BC18"/>
<path d="M16.8202 6.85245C17.3703 7.30895 17.5907 8.03233 17.8603 8.66639C17.8736 8.69755 17.887 8.72872 17.9008 8.76083C17.9262 8.81981 17.9512 8.8789 17.976 8.93812C18.0857 9.19291 18.2549 9.56062 18.5307 9.67413C18.7213 9.73553 18.9096 9.77832 19.1074 9.81061C19.1564 9.81886 19.1564 9.81886 19.2065 9.82728C19.433 9.86405 19.6602 9.89457 19.888 9.92279C19.9163 9.92633 19.9447 9.92986 19.974 9.93351C20.1158 9.9511 20.2578 9.96822 20.3998 9.98462C21.5549 10.1219 21.5549 10.1219 21.9052 10.4801C21.9985 10.6369 22.0246 10.7581 21.9825 10.9322C21.8049 11.4252 21.3428 11.7763 20.9376 12.0909C20.8953 12.1239 20.8532 12.1569 20.811 12.1899C20.6486 12.3168 20.4862 12.4435 20.3231 12.5695C20.1898 12.6727 20.0571 12.7767 19.927 12.8838C19.9058 12.9012 19.8846 12.9186 19.8628 12.9365C19.7241 13.0754 19.6875 13.1872 19.6888 13.3796C19.699 13.9789 19.8415 14.5704 19.9617 15.1558C19.9669 15.1812 19.9721 15.2067 19.9775 15.2329C19.9873 15.2806 19.9971 15.3283 20.0071 15.376C20.0659 15.6629 20.0856 15.9411 20.0858 16.2332C20.0862 16.2676 20.0866 16.302 20.087 16.3374C20.0871 16.3705 20.0872 16.4036 20.0872 16.4377C20.0874 16.4675 20.0875 16.4974 20.0877 16.5281C20.0786 16.6167 20.0603 16.6692 20.0107 16.7437C19.7968 16.8751 19.6008 16.8559 19.3584 16.8106C18.6151 16.6328 17.9035 16.2372 17.2408 15.8732C16.7514 15.5904 16.7514 15.5904 16.2064 15.5983C15.7425 15.7568 15.3208 16.0206 14.9085 16.2771C13.7787 16.9796 13.7787 16.9796 13.3485 16.8995C13.1989 16.85 13.1156 16.7792 13.0407 16.6482C12.8238 16.094 13.0096 15.3947 13.1105 14.8357C13.1233 14.7633 13.1361 14.6909 13.149 14.6185C13.1667 14.5186 13.1845 14.4187 13.2029 14.3189C13.2347 14.1455 13.2612 13.973 13.2821 13.7981C13.2861 13.7746 13.29 13.7511 13.2941 13.7269C13.3297 13.5049 13.358 13.2781 13.2291 13.0811C13.0718 12.8976 12.887 12.7449 12.6985 12.593C12.5296 12.4511 12.3639 12.3062 12.2007 12.1579C12.0815 12.0499 11.9621 11.9428 11.8381 11.8399C11.0834 11.1977 11.0834 11.1977 11.0413 10.8394C11.0356 10.6809 11.0349 10.579 11.1151 10.4382C11.6217 9.96333 12.6197 9.98067 13.271 9.89847C13.4001 9.88207 13.5292 9.86519 13.6583 9.84827C13.6971 9.84352 13.736 9.83877 13.776 9.83388C14.276 9.76993 14.276 9.76993 14.6896 9.51354C14.9231 9.18805 15.0698 8.81545 15.2196 8.44868C15.794 7.04398 15.794 7.04398 16.3031 6.80224C16.4822 6.74404 16.6522 6.77221 16.8202 6.85245Z" fill="#F0BC18"/>
<path d="M32.4659 10.706C32.4937 10.7052 32.5215 10.7044 32.5502 10.7035C32.7367 10.7026 32.841 10.7325 32.9894 10.8524C33.0937 10.9647 33.1275 11.0565 33.1256 11.2077C33.0993 11.5231 33.0539 11.8342 33.005 12.1468C32.996 12.2051 32.9871 12.2634 32.9781 12.3217C32.9539 12.4787 32.9295 12.6358 32.9051 12.7928C32.8794 12.958 32.8539 13.1232 32.8284 13.2884C32.7855 13.5658 32.7425 13.8432 32.6994 14.1205C32.6498 14.44 32.6003 14.7595 32.551 15.0791C32.5033 15.3879 32.4555 15.6966 32.4077 16.0053C32.3874 16.1361 32.3672 16.2668 32.347 16.3976C32.3231 16.552 32.2992 16.7063 32.2751 16.8607C32.2664 16.9169 32.2577 16.9731 32.249 17.0294C32.2224 17.2021 32.1948 17.3747 32.1655 17.547C32.1615 17.5705 32.1576 17.594 32.1535 17.6182C32.1418 17.6866 32.1293 17.7548 32.1166 17.823C32.1095 17.8619 32.1024 17.9007 32.095 17.9407C32.045 18.1074 31.9727 18.2194 31.8238 18.3152C31.5406 18.447 31.2581 18.5534 30.9575 18.6432C30.9116 18.6573 30.8656 18.6714 30.8197 18.6855C30.7229 18.7152 30.6261 18.7447 30.5293 18.7739C30.3548 18.8266 30.1805 18.8801 30.0062 18.9336C29.8802 18.9722 29.7542 19.0108 29.6282 19.0492C29.3809 19.1246 29.134 19.201 28.888 19.2801C27.7184 19.6558 27.7184 19.6558 27.3594 19.6558C27.3778 19.4849 27.4402 19.3532 27.5224 19.2039C27.7223 18.8283 27.878 18.4563 27.881 18.0282C27.8815 17.99 27.8815 17.99 27.882 17.9511C27.883 17.8661 27.8837 17.781 27.8845 17.696C27.8852 17.6349 27.8859 17.5739 27.8866 17.5129C27.8884 17.3472 27.89 17.1816 27.8917 17.016C27.8934 16.8429 27.8953 16.6698 27.8972 16.4967C27.9007 16.1689 27.9041 15.8411 27.9074 15.5133C27.9111 15.1402 27.9151 14.767 27.9191 14.3938C27.9272 13.6262 27.9352 12.8586 27.943 12.0909C27.9869 12.0748 28.0309 12.0586 28.0749 12.0425C28.1116 12.029 28.1116 12.029 28.149 12.0152C28.2252 11.9878 28.3018 11.9632 28.3795 11.94C28.4226 11.927 28.4226 11.927 28.4665 11.9137C28.497 11.9046 28.5274 11.8954 28.5588 11.8859C29.0876 11.7237 29.6071 11.5371 30.1261 11.3472C31.0648 11.004 31.0648 11.004 31.4639 10.8796C31.4924 10.8707 31.5209 10.8618 31.5503 10.8526C31.8539 10.7606 32.1474 10.7065 32.4659 10.706Z" fill="#F0BC18"/>
<path d="M0.983605 10.7855C1.04669 10.8027 1.04669 10.8027 1.11106 10.8203C2.08975 11.0908 3.05906 11.3984 4.02389 11.7123C4.06064 11.7242 4.06064 11.7242 4.09812 11.7364C4.34417 11.8166 4.58961 11.8986 4.83425 11.9828C4.8736 11.9963 4.91295 12.0099 4.95349 12.0238C5.04305 12.0575 5.04305 12.0575 5.07738 12.0909C5.08105 12.1609 5.08227 12.2309 5.08258 12.3009C5.08279 12.3342 5.08279 12.3342 5.08302 12.3682C5.08347 12.4432 5.08367 12.5181 5.08388 12.5931C5.08415 12.6467 5.08444 12.7002 5.08474 12.7538C5.08536 12.8695 5.08588 12.9853 5.08631 13.101C5.08701 13.2847 5.08796 13.4684 5.08895 13.6521C5.09084 14.01 5.09249 14.3679 5.09409 14.7257C5.09613 15.1787 5.09822 15.6317 5.10064 16.0846C5.10144 16.2369 5.10218 16.3892 5.10277 16.5415C5.10443 17.3109 5.10443 17.3109 5.12518 18.0799C5.1262 18.108 5.12723 18.136 5.12828 18.1649C5.14902 18.5814 5.3365 18.9427 5.52547 19.3096C5.53854 19.3352 5.55162 19.3609 5.56509 19.3873C5.57694 19.4101 5.5888 19.4328 5.60101 19.4563C5.62664 19.5219 5.62664 19.5219 5.62664 19.6558C5.29208 19.6229 4.99377 19.5487 4.67767 19.4389C4.06342 19.2263 3.43916 19.0511 2.8118 18.8795C1.26594 18.4567 1.26595 18.4567 1.02652 18.0826C0.68533 17.4406 0.671272 16.5483 0.564657 15.8401C0.545864 15.7154 0.526965 15.5907 0.508069 15.466C0.463498 15.1718 0.419113 14.8776 0.374846 14.5834C0.329331 14.281 0.283484 13.9785 0.237478 13.6761C0.197774 13.4151 0.158283 13.154 0.118958 12.8928C0.0955581 12.7375 0.0720794 12.5821 0.0483935 12.4268C0.0261706 12.2811 0.00421342 12.1352 -0.0175454 11.9894C-0.025533 11.9361 -0.0336119 11.8829 -0.0417925 11.8297C-0.143271 11.1687 -0.143271 11.1687 -0.106351 10.9863C0.198393 10.6038 0.557359 10.6676 0.983605 10.7855Z" fill="#F0BC18"/>
<path d="M29.5534 20.1914C29.376 20.8957 29.0639 21.578 28.7488 22.2332C28.7359 22.2603 28.723 22.2875 28.7097 22.3154C28.5291 22.6804 28.302 22.9353 27.9006 23.0738C27.5639 23.1644 27.2317 23.2058 26.8844 23.2367C26.7027 23.253 26.5213 23.2709 26.3398 23.2886C26.2809 23.2944 26.2809 23.2944 26.2208 23.3002C25.724 23.349 25.2281 23.406 24.7323 23.4633C24.7081 23.4661 24.6839 23.4689 24.6589 23.4718C24.356 23.5068 24.0531 23.5421 23.7502 23.5776C23.5876 23.5967 23.425 23.6157 23.2624 23.6346C22.954 23.6705 22.6456 23.7068 22.3373 23.7433C22.2309 23.7559 22.1245 23.7684 22.0181 23.7808C21.3761 23.8556 20.7404 23.9458 20.1042 24.0581C19.9929 24.0771 19.8815 24.0932 19.7695 24.1077C19.7863 23.9786 19.8017 23.9144 19.8725 23.8064C19.9902 23.7236 20.114 23.6621 20.2429 23.5976C20.4409 23.4981 20.6284 23.3828 20.8174 23.2682C21.1573 23.0629 21.5013 22.867 21.855 22.6851C21.8886 22.6675 21.9222 22.6499 21.9567 22.6317C22.606 22.3046 23.3227 22.0997 24.0135 21.8734C24.0964 21.8461 24.1793 21.8188 24.2622 21.7915C24.3925 21.7486 24.5227 21.7058 24.6529 21.663C24.9709 21.5585 25.2887 21.4534 25.6063 21.348C28.2629 20.467 28.2629 20.467 29.0063 20.2646C29.0495 20.2527 29.0495 20.2527 29.0936 20.2405C29.2517 20.1995 29.3898 20.1839 29.5534 20.1914Z" fill="#F0BC18"/>
<path d="M3.46484 20.1913C3.77575 20.2057 4.05699 20.3076 4.34882 20.4047C4.40464 20.4231 4.46045 20.4414 4.51627 20.4597C4.8416 20.5672 5.16356 20.6811 5.48384 20.8022C5.90658 20.9618 6.33342 21.1077 6.7626 21.2499C6.81344 21.2668 6.81344 21.2668 6.8653 21.284C7.34658 21.4431 7.82935 21.5976 8.31282 21.7503C9.64853 22.1722 10.9653 22.6129 12.1821 23.3071C12.3614 23.4091 12.5449 23.5006 12.7323 23.5877C12.9554 23.6924 13.1228 23.7742 13.2144 24.0072C13.2144 24.0404 13.2144 24.0735 13.2144 24.1077C12.9487 24.0822 12.687 24.0402 12.4237 23.9973C11.884 23.9106 11.3427 23.8401 10.8 23.7737C10.6713 23.7579 10.5426 23.742 10.414 23.726C10.2525 23.7061 10.091 23.6861 9.92951 23.6662C9.57622 23.6228 9.22304 23.5786 8.86991 23.534C8.63237 23.504 8.3948 23.4742 8.15723 23.4445C8.13155 23.4413 8.10588 23.4381 8.07942 23.4347C7.39345 23.3489 6.7075 23.2673 6.01784 23.2144C5.45681 23.1695 4.8787 23.0892 4.4942 22.655C4.38111 22.5104 4.30401 22.354 4.22653 22.1893C4.20926 22.1534 4.192 22.1175 4.17422 22.0805C3.46484 20.5808 3.46484 20.5808 3.46484 20.1913Z" fill="#F0BC18"/>
</svg>
